# xmcd
#
# Track frame offsets:
#	150
#	15243
#	36403
#	62068
#	78523
#	98218
#	120399
#	149333
#	173983
#	207966
#	224600
#	248454
#	275905
#	302467
#	325621
#
# Disc length: 4662 seconds
#
# Revision: 0
# Processed by: cddbd v1.5.2PL0 Copyright (c) Steve Scherf et al.
# Submitted via: audiograbber 1.83.01
#
DISCID=d012340f
DTITLE=Harold Melvin and The Blue Notes - Be for Real (The P.I.R Recordings 1972 
DTITLE=1975) CD2
DYEAR=2019
DGENRE=Soul
TTITLE0=Where Are All My Friends
TTITLE1=To Be True
TTITLE2=Pretty Flower
TTITLE3=Hope That We Can Be Together Soon
TTITLE4=Nobody Can Take Your Place
TTITLE5=Somewhere Down The Line
TTITLE6=Bad Luck
TTITLE7=It's All Because Of A Woman
TTITLE8=Wake Up Everybody
TTITLE9=Keep On Lovin You
TTITLE10=You Know How To Make Me Feel So Good
TTITLE11=Don't Leave Me This Way
TTITLE12=Tell The World How I Feel About Cha Baby
TTITLE13=To Be Free, To Be Who We Are
TTITLE14=I'm Searching For A Love
EXTD=
EXTT0=
EXTT1=
EXTT2=
EXTT3=
EXTT4=
EXTT5=
EXTT6=
EXTT7=
EXTT8=
EXTT9=
EXTT10=
EXTT11=
EXTT12=
EXTT13=
EXTT14=
PLAYORDER=
